<?xml version="1.0" encoding="UTF-8"?>
<svg version="1.1" xmlns="http://www.w3.org/2000/svg" width="1024" height="1024">
<path d="M0 0 C337.92 0 675.84 0 1024 0 C1024 337.92 1024 675.84 1024 1024 C686.08 1024 348.16 1024 0 1024 C0 686.08 0 348.16 0 0 Z " fill="#13161C" transform="translate(0,0)"/>
<path d="M0 0 C0.65274902 0.11827148 1.30549805 0.23654297 1.97802734 0.35839844 C40.51414264 7.63076017 77.64080064 30.59475253 100 63 C107.09842791 73.72586511 112.66897535 84.89852462 117 97 C117.36134033 97.99604248 117.36134033 97.99604248 117.72998047 99.01220703 C126.85825576 124.85137074 125.65631574 152.97616344 126 180 C126.69762451 179.98622314 127.39524902 179.97244629 128.11401367 179.95825195 C133.97997898 179.89180332 139.5458759 180.1090119 145.3125 181.1875 C146.03542236 181.3220459 146.75834473 181.4565918 147.50317383 181.59521484 C167.52631776 185.55718974 183.77129911 195.57483008 196.125 211.7890625 C206.39497757 227.14976171 209.47146788 243.52043105 209.38818359 261.74414062 C209.39226121 263.2671445 209.39760968 264.79014542 209.40411377 266.31314087 C209.41766132 270.40877505 209.41253882 274.50417965 209.40297651 278.59981728 C209.39530298 282.92165301 209.40244765 287.24347099 209.40713501 291.56530762 C209.41257508 298.82775338 209.40545201 306.09010729 209.39111328 313.35253906 C209.37483948 321.69011934 209.38004392 330.02747885 209.3965925 338.36505365 C209.4103168 345.57413162 209.41207275 352.78314405 209.40427649 359.99223089 C209.3996531 364.27515607 209.39882374 368.55797847 209.40888596 372.84089661 C209.45306163 394.60100574 209.43383776 416.30999771 203.1875 437.375 C202.79957275 438.73165771 202.79957275 438.73165771 202.40380859 440.11572266 C198.30699476 454.13819085 192.86034655 467.11425086 186 480 C185.68305176 480.60585938 185.36610352 481.21171875 185.03955078 481.8359375 C178.40085994 494.44566442 169.81267687 505.17594436 160.18359375 515.62890625 C158.67708266 517.26477786 157.19119007 518.91979585 155.72265625 520.58984375 C151.1125517 525.83038995 146.42435721 530.60795991 141 535 C139.63488281 536.12148437 139.63488281 536.12148437 138.2421875 537.265625 C105.83770535 563.09175363 64.64933011 579.36723601 22.97802734 579.2746582 C21.75965179 579.27976913 20.54127625 579.28488007 19.28598022 579.29014587 C15.98800288 579.30154884 12.69018392 579.30413385 9.39219236 579.30158257 C6.61476905 579.30050021 3.83736798 579.30542846 1.05994952 579.310188 C-5.50839098 579.32122503 -12.07667428 579.3217546 -18.64501953 579.31567383 C-25.36260404 579.30964921 -32.07997828 579.3219199 -38.79752696 579.3432439 C-44.61549678 579.3610155 -50.43340066 579.36683678 -56.25139654 579.36360615 C-59.70373415 579.3618165 -63.15592203 579.36419085 -66.60823441 579.37832069 C-85.73199082 579.44032172 -104.23360532 578.66492398 -122.75 573.4375 C-123.64356201 573.18846924 -124.53712402 572.93943848 -125.45776367 572.68286133 C-154.46350402 564.21144716 -181.09601659 549.80878424 -203 529 C-204.3486155 527.84763825 -205.70241463 526.70130164 -207.0625 525.5625 C-225.46239697 509.43926371 -238.63966971 487.89394585 -249 466 C-249.804375 464.32164062 -249.804375 464.32164062 -250.625 462.609375 C-261.29861739 439.14965345 -265.13075716 413.98464351 -265.17700195 388.40942383 C-265.18328171 386.86727755 -265.1899298 385.32513274 -265.19691467 383.7829895 C-265.21777189 378.75768043 -265.22829747 373.73237168 -265.23828125 368.70703125 C-265.24233521 366.96549655 -265.24645231 365.223962 -265.25063133 363.4824276 C-265.26964008 355.29826458 -265.2838819 347.11411035 -265.2922433 338.92992955 C-265.30200969 329.5301994 -265.32833185 320.13070508 -265.36874419 310.73105794 C-265.39903265 303.43213079 -265.41372403 296.13327081 -265.41702431 288.8342821 C-265.41935952 284.48995251 -265.42811907 280.14587609 -265.45348549 275.80161476 C-265.47699698 271.70972975 -265.48090834 267.61826063 -265.47072411 263.52632523 C-265.47023425 262.03818173 -265.47638886 260.55001607 -265.49028015 259.06193733 C-265.66394287 239.32965449 -260.37782734 220.95500278 -247 206 C-246.35675781 205.26394531 -245.71351563 204.52789063 -245.05078125 203.76953125 C-233.15235127 190.99136523 -218.28934151 184.34712614 -201.3125 181.1875 C-200.31609497 181.0011499 -200.31609497 181.0011499 -199.29956055 180.81103516 C-193.53255488 179.85726385 -187.83331843 179.88480223 -182 180 C-181.98018066 178.91807373 -181.96036133 177.83614746 -181.93994141 176.72143555 C-181.86238161 172.60780108 -181.77393349 168.49445363 -181.68261719 164.38110352 C-181.64493462 162.61944346 -181.6099913 160.85772213 -181.578125 159.09594727 C-180.98954716 126.91729335 -180.98954716 126.91729335 -176.75 112.3125 C-176.53311523 111.53471191 -176.31623047 110.75692383 -176.09277344 109.95556641 C-164.78121926 70.46166921 -140.07129058 38.12949469 -103.97558594 18.0703125 C-71.97799985 0.73499151 -36.09170006 -6.57586996 0 0 Z " fill="#F7F7F7" transform="translate(540,321)"/>
<path d="M0 0 C1.15342679 -0.00384115 2.30685358 -0.00768229 3.4952327 -0.01163983 C5.40477213 -0.01034011 5.40477213 -0.01034011 7.35288811 -0.00901413 C8.71437282 -0.01159723 10.07585677 -0.01461023 11.43733966 -0.01801753 C15.18711083 -0.02609754 18.93686286 -0.02787766 22.68664169 -0.028615 C26.72770388 -0.03046386 30.76875611 -0.03801044 34.80981255 -0.04475021 C43.65086496 -0.05834203 52.49191284 -0.06435982 61.33297396 -0.06876087 C66.85300893 -0.07152234 72.37304215 -0.07575957 77.89307594 -0.08026505 C93.17466751 -0.09245973 108.45625767 -0.10275806 123.737854 -0.10614014 C125.20546886 -0.10646949 125.20546886 -0.10646949 126.7027325 -0.10680549 C128.17387902 -0.10713291 128.17387902 -0.10713291 129.67474568 -0.10746694 C131.66217621 -0.1079104 133.64960675 -0.10835697 135.63703728 -0.10880661 C136.62287347 -0.10902804 137.60870966 -0.10924947 138.62441967 -0.10947761 C154.59372357 -0.11342447 170.5629818 -0.1308742 186.53226806 -0.15416613 C202.92549821 -0.17788345 219.31870546 -0.19034219 235.71195304 -0.19150805 C244.9169678 -0.1924247 254.12192309 -0.19817418 263.32692146 -0.21632767 C271.16659441 -0.2317339 279.00618953 -0.2368461 286.84587474 -0.22858956 C290.84494543 -0.22468466 294.8438594 -0.22560472 298.84291077 -0.23964691 C302.50719093 -0.25239571 306.17119678 -0.25117986 309.83547662 -0.2390562 C311.78219544 -0.23617774 313.72891904 -0.2480277 315.67560017 -0.26047826 C325.92094483 -0.20272719 333.85360405 1.25318126 341.32120514 8.62742615 C348.56018936 16.99820323 349.21656374 27.00485881 349.13361931 37.6070137 C349.14041358 39.01811213 349.14932676 40.42920168 349.1601696 41.84027481 C349.18278057 45.64086638 349.17419641 49.44077191 349.15827417 53.24137402 C349.1454898 57.25399751 349.15739243 61.26656772 349.165205 65.27919388 C349.17427807 72.02740716 349.16238879 78.77534611 349.13850212 85.52351761 C349.11142782 93.26018373 349.1200139 100.99618798 349.14763415 108.73283744 C349.17055138 115.42644919 349.17341268 122.11986506 349.1604408 128.8135035 C349.15275164 132.78807485 349.15130315 136.76233885 349.16812325 140.73688889 C349.23499482 159.03701091 348.33882532 176.34853926 343.48664665 194.13142776 C343.26167629 194.95868111 343.03670593 195.78593445 342.80491829 196.63825607 C337.59931226 215.39845558 328.29640667 233.4434657 315.48664665 248.13142776 C314.71449821 249.02861526 313.94234978 249.92580276 313.1468029 250.85017776 C310.96964045 253.32135019 308.74371376 255.73329397 306.48664665 258.13142776 C305.88852165 258.79400589 305.29039665 259.45658401 304.67414665 260.13924026 C288.40132655 277.46418236 265.46138284 288.82820463 242.92414665 295.44392776 C242.11066765 295.68643265 241.29718864 295.92893753 240.45905876 296.17879105 C224.4812405 300.63676459 208.38698515 300.44309728 191.9358654 300.43220901 C189.46693666 300.4361054 186.99800858 300.44044198 184.52908134 300.44519424 C179.37437065 300.45261962 174.21972848 300.45239206 169.06501579 300.44710159 C162.50588081 300.44131233 155.9470287 300.45824332 149.38794041 300.48144627 C144.29425264 300.4962794 139.20063151 300.49704234 134.10692596 300.49393654 C131.69076096 300.49444496 129.27459174 300.499591 126.85844803 300.50974846 C109.51568074 300.57372355 93.01112872 299.64706631 76.36164665 294.38142776 C75.53165154 294.12321243 74.70165642 293.8649971 73.84650993 293.59895706 C53.49248795 287.08543594 35.11199449 276.77276374 19.48664665 262.13142776 C18.90930779 261.59646683 18.33196892 261.06150589 17.73713493 260.51033401 C-9.11073992 235.40883914 -25.04128722 200.80806336 -27.51335335 164.13142776 C-27.66022371 159.4893244 -27.68038319 154.84985061 -27.6903553 150.20564651 C-27.69663741 148.8425772 -27.70328568 147.47950954 -27.71026802 146.11644363 C-27.73108487 141.68394998 -27.74164199 137.25145679 -27.7516346 132.81892776 C-27.75568908 131.2828253 -27.75980619 129.74672301 -27.76398468 128.21062088 C-27.78297884 120.99663025 -27.79722764 113.78264955 -27.80559665 106.5686388 C-27.81537925 98.27704479 -27.84174962 89.98571697 -27.88209754 81.69421673 C-27.91233398 75.25735606 -27.9270722 68.8205715 -27.93037766 62.38364124 C-27.93271734 58.55086297 -27.9415374 54.71837101 -27.96683884 50.88566971 C-27.99026089 47.28050366 -27.99429688 43.67580982 -27.98407745 40.07058716 C-27.98335297 38.13449657 -28.00233833 36.19842916 -28.02214241 34.26243973 C-27.95961606 23.66216017 -25.91714524 14.64015717 -18.45085335 6.78767776 C-13.08638511 2.20192266 -7.00281811 0.00873352 0 0 Z " fill="#13161C" transform="translate(351.5133533477783,550.8685722351074)"/>
<path d="M0 0 C1.54421631 0.00223572 1.54421631 0.00223572 3.11962891 0.0045166 C19.27644846 0.04646773 35.01790485 0.78714936 51 3.3125 C52.44076904 3.52132812 52.44076904 3.52132812 53.91064453 3.734375 C105.40098641 11.21003546 155.21807415 32.78528508 196.16210938 64.87597656 C197.97707153 66.29457876 199.80659251 67.69211238 201.640625 69.0859375 C207.66801466 73.69826531 213.46820297 78.49376201 219.0625 83.625 C219.58674561 84.10453125 220.11099121 84.5840625 220.65112305 85.078125 C226.8689005 90.88849267 231.94639843 96.13762567 232.375 105 C232.18694012 112.89851501 229.17579347 120.13433057 223.7578125 125.90625 C218.82755734 129.85045413 212.43146679 130.92684799 206.2421875 130.6484375 C197.13330506 129.28369205 190.72722756 123.14633744 184 117.3125 C140.89229744 80.41604435 94.74045717 57.73076536 38 50.3125 C37.14937988 50.19390625 36.29875977 50.0753125 35.42236328 49.953125 C5.17875429 45.79609795 -26.52747853 47.60816913 -56.33984375 53.76367188 C-58.07473444 54.12160454 -59.81168385 54.46974044 -61.55078125 54.80664062 C-96.83669075 61.69370383 -133.5485152 78.95898865 -161 102.3125 C-162.60092781 103.58741106 -164.20521574 104.85811193 -165.8125 106.125 C-169.79234092 109.30386665 -173.6849968 112.57323027 -177.5625 115.875 C-195.33605588 130.9496277 -195.33605588 130.9496277 -207.96484375 130.68359375 C-214.76757797 129.85185662 -219.32113538 126.54784969 -223.5 121.25 C-227.94657639 115.01244145 -227.88974981 107.73848882 -227 100.3125 C-222.83650108 89.54688137 -213.32856398 82.56625944 -204.59814453 75.59863281 C-202.9158999 74.24481908 -201.25231975 72.87018812 -199.58984375 71.4921875 C-159.7055977 38.66067653 -110.86905707 14.5973376 -60 5.3125 C-59.25443848 5.17360352 -58.50887695 5.03470703 -57.74072266 4.89160156 C-38.5093654 1.34799574 -19.54803362 -0.0702769 0 0 Z " fill="#F8F8F8" transform="translate(510,115.6875)"/>
<path d="M0 0 C1.18891846 0.00563965 2.37783691 0.0112793 3.6027832 0.01708984 C29.12770547 0.36824658 51.83904994 9.20482037 70.8125 26.3125 C71.65425781 27.06015625 72.49601563 27.8078125 73.36328125 28.578125 C86.15108742 40.59030995 94.41522475 55.98068231 99.5625 72.625 C99.76141846 73.25132324 99.96033691 73.87764648 100.1652832 74.52294922 C105.41021874 92.63608997 103.8125 111.75792771 103.8125 130.3125 C36.1625 130.3125 -31.4875 130.3125 -101.1875 130.3125 C-101.1875 88.6424456 -99.53868685 58.09157613 -71.4375 28.125 C-52.05040075 9.67221879 -26.59374035 -0.13239185 0 0 Z " fill="#13161C" transform="translate(511.1875,370.6875)"/>
<path d="M0 0 C0.97839844 0.4021875 1.95679688 0.804375 2.96484375 1.21875 C10.50458043 4.64158128 16.20920627 9.1286387 22 15 C22.64839844 15.63808594 23.29679688 16.27617188 23.96484375 16.93359375 C33.78565656 27.2701604 38.60118306 41.22659048 38.4375 55.3125 C38.43065186 56.22749268 38.42380371 57.14248535 38.41674805 58.08520508 C38.24010538 65.58160228 36.94705568 72.07149162 34 79 C33.50886719 80.28003906 33.50886719 80.28003906 33.0078125 81.5859375 C28.468494 92.08932411 18.11902209 103.68540203 7.38427734 108.06787109 C6.59746582 108.37547363 5.8106543 108.68307617 5 109 C5.57425128 115.04256371 6.1588832 121.08406322 6.75 127.125 C6.88239075 128.48254898 6.88239075 128.48254898 7.01745605 129.86752319 C8.18107837 141.72694454 9.55419712 153.51755774 11.25 165.3125 C12.40332872 173.54287345 13.3917323 181.68225155 13.5 190 C13.52755371 191.11242065 13.52755371 191.11242065 13.55566406 192.24731445 C13.49596974 197.29685713 12.36445563 200.25225196 9 204 C3.01394349 208.18020864 -2.69330762 208.59102831 -9.81640625 208.53125 C-10.83169907 208.5350769 -11.84699188 208.53890381 -12.89305115 208.54284668 C-15.02856443 208.54555588 -17.16411147 208.53826463 -19.29956055 208.52148438 C-22.55658265 208.50003896 -25.81140467 208.52133218 -29.06835938 208.546875 C-31.1510465 208.54423198 -33.23373227 208.53910755 -35.31640625 208.53125 C-36.28324844 208.53934692 -37.25009064 208.54744385 -38.24623108 208.55578613 C-44.36415095 208.47144702 -47.99232391 207.57333721 -53 204 C-57.59848376 199.03847805 -58.18094536 195.34457488 -58.11126709 188.82980347 C-57.92263624 184.03244393 -57.35032029 179.29701563 -56.7578125 174.53515625 C-56.62937958 173.46236923 -56.50094666 172.38958221 -56.36862183 171.2842865 C-55.95961201 167.87632989 -55.54266595 164.46940553 -55.125 161.0625 C-54.58369931 156.59532115 -54.0452824 152.12779752 -53.5078125 147.66015625 C-53.37755676 146.5776358 -53.24730103 145.49511536 -53.11309814 144.37979126 C-52.31218819 137.69275732 -51.53029543 131.00424787 -50.8046875 124.30859375 C-50.72131134 123.56134537 -50.63793518 122.81409698 -50.55203247 122.04420471 C-50.09003074 117.67812189 -49.76321671 113.38826838 -50 109 C-51.83242324 106.97164765 -51.83242324 106.97164765 -54.4375 105.625 C-68.84826102 96.49342866 -75.9536056 84.15153216 -80.54638672 68.08911133 C-83.00071917 56.78570834 -81.83478085 43.40565289 -77 33 C-76.69964844 32.28070312 -76.39929688 31.56140625 -76.08984375 30.8203125 C-73.58913293 25.25596028 -69.92632152 20.63104589 -66 16 C-65.49984375 15.3915625 -64.9996875 14.783125 -64.484375 14.15625 C-59.11367533 8.18880592 -52.09971633 4.53085357 -45 1 C-44.07574219 0.53980469 -43.15148437 0.07960938 -42.19921875 -0.39453125 C-30.01669774 -5.38389948 -12.11202732 -5.13254448 0 0 Z " fill="#54C678" transform="translate(534,591)"/>
<path d="M0 0 C58.29375634 -1.48765966 110.91607332 17.40762971 154.67919922 56.07080078 C160.58368866 61.86734709 164.69521707 67.41078725 165.11669922 75.94580078 C164.89064711 82.6965388 162.58260322 87.88188618 158.17919922 92.94580078 C151.61232488 98.52764397 147.34874093 99.47482501 138.69091797 99.32861328 C130.73241647 98.64734078 125.75640609 93.57678672 119.92700195 88.55175781 C101.28624223 72.49421398 80.31312147 61.0612584 56.67919922 54.07080078 C55.61064697 53.7544165 55.61064697 53.7544165 54.52050781 53.43164062 C38.6805894 48.8682267 22.91768217 47.71516763 6.51660156 47.75512695 C3.81388012 47.75828945 1.11225555 47.73470987 -1.59033203 47.70947266 C-39.30992434 47.57174023 -75.73510962 61.45469398 -104.58251953 85.64111328 C-105.33452637 86.26856445 -106.0865332 86.89601563 -106.86132812 87.54248047 C-108.33973789 88.78100212 -109.81058484 90.02862683 -111.27246094 91.28662109 C-118.90857304 97.73088666 -124.87247676 99.67224122 -135.00830078 99.41455078 C-141.16179688 98.77598043 -144.46622284 96.18112811 -148.63330078 91.69580078 C-152.79272061 86.4493859 -153.84878716 81.33236377 -153.69970703 74.72314453 C-151.6692675 60.5100678 -138.91498749 52.01921998 -128.32080078 44.07080078 C-127.75296875 43.63832031 -127.18513672 43.20583984 -126.60009766 42.76025391 C-117.05176901 35.51245824 -106.95397525 29.5863571 -96.32080078 24.07080078 C-95.5720166 23.68005371 -94.82323242 23.28930664 -94.05175781 22.88671875 C-75.18335386 13.1649011 -55.20000042 6.74760907 -34.32080078 3.07080078 C-33.20060547 2.85810547 -32.08041016 2.64541016 -30.92626953 2.42626953 C-20.69363285 0.63716702 -10.36205982 0.31611586 0 0 Z " fill="#F8F8F8" transform="translate(506.32080078125,214.92919921875)"/>
<path d="M0 0 C0.70128525 -0.00287018 1.4025705 -0.00574036 2.12510681 -0.00869751 C3.60530405 -0.0107365 5.08552833 -0.00521802 6.56567383 0.00732422 C8.83540778 0.02340607 11.1033677 0.00745956 13.37304688 -0.01171875 C14.81120186 -0.00973676 16.24935573 -0.00589399 17.6875 0 C19.65408569 0.00507568 19.65408569 0.00507568 21.66040039 0.01025391 C23.20328735 0.20240479 23.20328735 0.20240479 24.77734375 0.3984375 C25.43734375 1.3884375 26.09734375 2.3784375 26.77734375 3.3984375 C14.56734375 3.3984375 2.35734375 3.3984375 -10.22265625 3.3984375 C-6.46050069 -0.36371806 -5.1960138 0.01339919 0 0 Z " fill="#1E2027" transform="translate(503.22265625,162.6015625)"/>
<path d="M0 0 C0.66 0 1.32 0 2 0 C2 9.9 2 19.8 2 30 C1.01 30 0.02 30 -1 30 C-1.02465746 25.8882744 -1.04283959 21.77657722 -1.05493164 17.66479492 C-1.0599708 16.26504772 -1.06680216 14.8653058 -1.07543945 13.46557617 C-1.0875232 11.45754223 -1.09269807 9.44947043 -1.09765625 7.44140625 C-1.10289307 6.23170166 -1.10812988 5.02199707 -1.11352539 3.77563477 C-1 1 -1 1 0 0 Z " fill="#C7C8CA" transform="translate(408,471)"/>
<path d="M0 0 C-3.14180414 2.79759716 -5.01311998 3.3346439 -9.1875 3.125 C-10.79066195 3.05458293 -12.39530295 3.00584589 -14 3 C-14.33 3.33 -14.66 3.66 -15 4 C-21.46153846 4.35897436 -21.46153846 4.35897436 -25 2 C-16.6030674 0.62707087 -8.51372785 -0.31274919 0 0 Z " fill="#1C1D21" transform="translate(500,262)"/>
<path d="M0 0 C2.9193894 0.26270267 5.06034871 0.97648462 7.75390625 2.1171875 C8.59050781 2.46523438 9.42710937 2.81328125 10.2890625 3.171875 C12.45737134 4.13791829 14.57941177 5.15936354 16.69140625 6.2421875 C16.36140625 6.9021875 16.03140625 7.5621875 15.69140625 8.2421875 C14.66660156 7.89285156 13.64179687 7.54351562 12.5859375 7.18359375 C11.22531488 6.72379714 9.86463474 6.2641707 8.50390625 5.8046875 C7.83037109 5.57458984 7.15683594 5.34449219 6.46289062 5.10742188 C2.89626134 3.90694665 -0.59570985 2.86941255 -4.30859375 2.2421875 C-2.30859375 0.2421875 -2.30859375 0.2421875 0 0 Z " fill="#ECECED" transform="translate(536.30859375,370.7578125)"/>
<path d="M0 0 C2.5 0.1875 2.5 0.1875 4.5 1.1875 C6.49960012 1.227492 8.50047242 1.23096799 10.5 1.1875 C10.83 2.1775 11.16 3.1675 11.5 4.1875 C9.77054347 4.04514543 8.04144346 3.89845618 6.3125 3.75 C4.86810547 3.62818359 4.86810547 3.62818359 3.39453125 3.50390625 C0.71350398 3.21083849 -1.8662986 2.76046246 -4.5 2.1875 C-2.5 0.1875 -2.5 0.1875 0 0 Z " fill="#1B1C20" transform="translate(442.5,845.8125)"/>
<path d="M0 0 C1.07765625 0.01804687 2.1553125 0.03609375 3.265625 0.0546875 C4.49539063 0.08949219 4.49539063 0.08949219 5.75 0.125 C6.08 1.115 6.41 2.105 6.75 3.125 C1.14 2.795 -4.47 2.465 -10.25 2.125 C-6.14441282 0.07220641 -4.44793315 -0.0966942 0 0 Z " fill="#1B1C20" transform="translate(544.25,114.875)"/>
<path d="M0 0 C1.28497537 3.85492611 0.4052209 5.40346836 -0.9375 9.1875 C-1.31777344 10.27417969 -1.69804688 11.36085938 -2.08984375 12.48046875 C-2.39019531 13.31191406 -2.69054687 14.14335938 -3 15 C-3.66 14.34 -4.32 13.68 -5 13 C-4.7578125 10.8359375 -4.7578125 10.8359375 -4.125 8.375 C-3.92132812 7.55773437 -3.71765625 6.74046875 -3.5078125 5.8984375 C-3.34023438 5.27195312 -3.17265625 4.64546875 -3 4 C-2.34 4 -1.68 4 -1 4 C-0.67 2.68 -0.34 1.36 0 0 Z " fill="#F2F2F2" transform="translate(741,760)"/>
<path d="M0 0 C0.99 0.33 1.98 0.66 3 1 C2.34 2.65 1.68 4.3 1 6 C0.34 6 -0.32 6 -1 6 C-1 7.65 -1 9.3 -1 11 C-1.99 11.33 -2.98 11.66 -4 12 C-3.52309796 10.37433394 -3.04340334 8.74948689 -2.5625 7.125 C-2.29566406 6.22007812 -2.02882813 5.31515625 -1.75390625 4.3828125 C-1 2 -1 2 0 0 Z " fill="#ECEDED" transform="translate(372,408)"/>
<path d="M0 0 C0.66 0 1.32 0 2 0 C1.48964169 4.3890815 0.47785723 7.33708062 -2 11 C-3.13643966 7.59068103 -2.86747764 6.99664544 -1.5625 3.8125 C-1.13130859 2.73935547 -1.13130859 2.73935547 -0.69140625 1.64453125 C-0.46324219 1.10183594 -0.23507812 0.55914062 0 0 Z " fill="#EBECEC" transform="translate(366,426)"/>
<path d="M0 0 C4.04420651 1.77945087 7.46078487 4.39529673 11 7 C10.34 7.66 9.68 8.32 9 9 C7.49428343 7.88266271 5.99555708 6.75589965 4.5 5.625 C3.6646875 4.99851562 2.829375 4.37203125 1.96875 3.7265625 C1.3190625 3.15679687 0.669375 2.58703125 0 2 C0 1.34 0 0.68 0 0 Z " fill="#F0F0F1" transform="translate(573,389)"/>
<path d="M0 0 C-0.33 0.99 -0.66 1.98 -1 3 C-3.8125 3.625 -3.8125 3.625 -7 4 C-7.99 3.34 -8.98 2.68 -10 2 C-8.7090864 1.66376204 -7.41723903 1.33110751 -6.125 1 C-5.40570312 0.814375 -4.68640625 0.62875 -3.9453125 0.4375 C-2 0 -2 0 0 0 Z " fill="#212226" transform="translate(610,893)"/>
<path d="M0 0 C-1.97420135 2.52259061 -2.96745642 2.9929808 -6.1875 3.6875 C-7.5796875 3.8421875 -7.5796875 3.8421875 -9 4 C-9 3.01 -9 2.02 -9 1 C-2.25 -1.125 -2.25 -1.125 0 0 Z " fill="#E9E9EA" transform="translate(601,845)"/>
<path d="M0 0 C-1.49097658 3.7952131 -3.75700849 5.61042731 -7 8 C-7.66 7.67 -8.32 7.34 -9 7 C-7.88121617 5.82737096 -6.75476949 4.66204862 -5.625 3.5 C-4.68527344 2.52546875 -4.68527344 2.52546875 -3.7265625 1.53125 C-2 0 -2 0 0 0 Z " fill="#E8E9E9" transform="translate(691,845)"/>
<path d="M0 0 C4.455 0.99 4.455 0.99 9 2 C8.67 2.99 8.34 3.98 8 5 C5.03 4.01 2.06 3.02 -1 2 C-0.67 1.34 -0.34 0.68 0 0 Z " fill="#EDEDEF" transform="translate(418,842)"/>
<path d="M0 0 C0.33 0 0.66 0 1 0 C1 3.63 1 7.26 1 11 C-2.375 6.5 -2.375 6.5 -2 2 C-1.34 2 -0.68 2 0 2 C0 1.34 0 0.68 0 0 Z " fill="#191C21" transform="translate(326,708)"/>
<path d="M0 0 C3.94139078 1.66751148 6.7892812 4.22710649 10 7 C9.34 7.66 8.68 8.32 8 9 C6.66368764 7.6905332 5.33102075 6.37734515 4 5.0625 C3.2575 4.33160156 2.515 3.60070312 1.75 2.84765625 C0 1 0 1 0 0 Z " fill="#1F2022" transform="translate(720,516)"/>
<path d="M0 0 C0.99 0.33 1.98 0.66 3 1 C2.34 3.97 1.68 6.94 1 10 C0.67 10 0.34 10 0 10 C0 6.7 0 3.4 0 0 Z " fill="#EAEAEB" transform="translate(353,287)"/>
<path d="M0 0 C5.75 1.875 5.75 1.875 8 3 C7.67 3.99 7.34 4.98 7 6 C4.525 5.01 4.525 5.01 2 4 C2 3.34 2 2.68 2 2 C1.34 2 0.68 2 0 2 C0 1.34 0 0.68 0 0 Z " fill="#EBECEC" transform="translate(604,234)"/>
<path d="M0 0 C2 2 2 2 2.125 4.625 C2.08375 5.40875 2.0425 6.1925 2 7 C1.01 7 0.02 7 -1 7 C-0.67 4.69 -0.34 2.38 0 0 Z " fill="#1B1D20" transform="translate(698,572)"/>
<path d="M0 0 C-0.99 0.33 -1.98 0.66 -3 1 C-3 1.66 -3 2.32 -3 3 C-4.65 3 -6.3 3 -8 3 C-8.33 2.34 -8.66 1.68 -9 1 C-2.25 -1.125 -2.25 -1.125 0 0 Z " fill="#E5E5E6" transform="translate(426,128)"/>
<path d="M0 0 C0 0.99 0 1.98 0 3 C-2.875 3.125 -2.875 3.125 -6 3 C-6.66 2.34 -7.32 1.68 -8 1 C-5.10765685 0.17361624 -3.11257569 0 0 0 Z " fill="#202125" transform="translate(495,372)"/>
</svg>
